<?xml version="1.0" encoding="UTF-8"?>
<svg id="Livello_2" data-name="Livello 2" xmlns="http://www.w3.org/2000/svg" viewBox="0 0 325.98 73.75">
  <defs>
    <style>
      .cls-1 {
        fill: #5195ff;
      }

      .cls-2 {
        fill: #234980;
      }
    </style>
  </defs>
  <g id="Livello_1-2" data-name="Livello 1">
    <g>
      <g>
        <path class="cls-2" d="M98.45,18.44h7.27v36.36h-7.27V18.44Z"/>
        <path class="cls-2" d="M151.01,54.79v-27.68l-13.56,28.2h-2.6l-13.56-28.2v27.68h-7.27l.05-36.36h10.65l11.43,23.74,11.43-23.74h10.65l.05,36.36h-7.27Z"/>
        <path class="cls-2" d="M203.57,54.79v-27.68l-13.56,28.2h-2.6l-13.56-28.2v27.68h-7.27l.05-36.36h10.65l11.43,23.74,11.43-23.74h10.65l.05,36.36h-7.27Z"/>
        <path class="cls-2" d="M226.42,25.08v7.01h19.06v6.54h-19.06v9.5h20.31v6.65h-27.58V18.44h27.58v6.65h-20.31Z"/>
        <path class="cls-2" d="M286.98,18.44v36.88h-2.6l-22.85-27.11v26.59h-7.27V18.44h8.52l16.93,20.46v-20.46h7.27Z"/>
        <path class="cls-2" d="M325.98,25.19h-13.4v29.6h-7.27v-29.6h-13.4v-6.75h34.07v6.75Z"/>
      </g>
      <path class="cls-1" d="M54.26,15.25h-16.9c-1.71,0-3.17-1.09-3.72-2.61l-3.33-9.89c-.51-1.59-2.01-2.75-3.77-2.75-.13,0-.26,0-.38.02C11.45,1.6,0,14.05,0,29.18c0,16.2,13.13,29.33,29.33,29.33h16.91c1.74,0,3.22,1.13,3.75,2.69l3.34,9.92c.55,1.54,2.01,2.63,3.73,2.63.15,0,.3,0,.45-.02,14.67-1.62,26.07-14.05,26.07-29.15,0-16.2-13.13-29.33-29.33-29.33ZM54.26,58.51h-2.33c-1.71,0-3.17-1.08-3.72-2.6l-1.59-4.73c-1.55-4.69-5.97-8.07-11.18-8.07h-6.11c-7.69,0-13.93-6.24-13.93-13.93s6.24-13.93,13.93-13.93h2.34c1.76,0,3.25,1.14,3.76,2.73l1.57,4.66c1.61,4.66,6.03,8.01,11.23,8.01h0s6.02,0,6.02,0c7.69,0,13.93,6.24,13.93,13.93s-6.24,13.93-13.93,13.93Z"/>
    </g>
  </g>
</svg>