<?xml version="1.0" encoding="UTF-8"?>
<svg xmlns="http://www.w3.org/2000/svg" version="1.1" viewBox="0 0 1285.8 788.7">
  <g>
    <g id="Layer_1">
      <g>
        <path d="M0,354.1v-24c16.6,1.7,28.1,2.6,28.9,2.6,24.2,0,37.8-12.3,40.7-36.8l22.5-196.2h27.4l-22.5,196.6c-4.4,40.3-27,60.5-67.7,60.5s-18.2-.9-29.2-2.5Z" style="fill: #0E2D54;"/>
        <path d="M219.3,282c-24,0-41.7-5.9-53.2-17.7-11.5-11.8-17.2-30.3-17.2-55.5,0-37.4,7.3-65.3,21.9-83.7,14.6-18.4,37.7-27.7,69.4-27.7s41.7,6.1,53.2,18.4c11.5,12.3,17.2,31,17.2,56.2,0,37.6-7.2,65.3-21.5,83.2-14.4,17.8-37.6,26.8-69.8,26.8ZM222.1,258.4c21.1,0,36.4-6.8,46-20.4,9.6-13.6,14.4-34.5,14.4-62.6s-3.6-32-10.9-40.8c-7.2-8.7-18.6-13.1-34.2-13.1s-36.7,7-46,20.9c-9.4,14-14,35.1-14,63.5s3.6,31.2,10.9,39.7c7.2,8.5,18.5,12.7,33.8,12.7Z" style="fill: #0E2D54;"/>
        <path d="M370.7,11.4h27c0,0-12.8,109.7-12.8,109.7h1.6c3.5-6.1,9.9-11.6,19.4-16.4,9.4-4.8,21.2-7.2,35.3-7.2,43.6,0,65.5,24.8,65.5,74.3,0,73.5-28.7,110.3-86,110.3s-25.8-2.5-34.5-7.5c-8.7-5-14.1-10.5-16.2-16.6l-1.2-.2-2.6,22.4h-25.8L370.7,11.4ZM374.2,204.9c0,35.7,15.5,53.5,46.6,53.5s36-7.3,44.9-22c8.8-14.7,13.2-35.5,13.2-62.4s-14.1-52.4-42.3-52.4c-41.6,0-62.4,27.8-62.4,83.4Z" style="fill: #0E2D54;"/>
        <path d="M190.3,324c13.7,0,24.6,2.6,32.7,7.8,8.1,5.2,13.3,11,15.4,17.3l2.4.2,2.8-24.6h26.6l-22.8,199.5c-4.5,39.3-31.1,59-79.8,59-13.5,0-24.9-1.3-34.3-4-9.4-2.7-16.1-6-20.2-10-4.1-4-7.3-8.4-9.7-13.3-2.4-4.9-3.9-9.4-3.9-13.7v-10.5l27.2-5c-.3,3.9-.1,7.4.4,10.6.5,3.1,2,6.7,4.3,10.7,2.4,4,6.8,7.2,13.2,9.5,6.5,2.3,14.8,3.5,25.1,3.5,30.8,0,47.6-12.4,50.2-37.1l4.7-39-1.6-.3c-3.4,6.1-9.8,11.6-19,16.6-9.3,5-20.7,7.5-34.5,7.5-44.4,0-66.6-24.6-66.6-73.9s7-64,20.9-82.6c13.9-18.7,36.1-28,66.6-28ZM235.6,402.7c0-36.4-15.5-54.6-46.6-54.6s-22.1,2.1-30,6.2c-7.9,4.1-13.9,10.3-18,18.6-4.1,8.3-6.9,17.1-8.3,26.4-1.5,9.3-2.2,20.6-2.2,33.7s3.4,30.2,10.1,39c6.7,8.7,17.6,13.1,32.6,13.1,23.4,0,39.7-7.3,48.8-22,9.1-14.7,13.6-34.8,13.6-60.3Z" style="fill: #0E2D54;"/>
        <path d="M386.2,324c13.7,0,24.6,2.6,32.8,7.8,8.2,5.2,13.3,11,15.4,17.3l2.6-.4,2.4-22.5h25.8l-16.6,147.1c-1.1,7.8,2.2,11.6,9.9,11.6l8.7-1.5-2.4,22.2c-4.5,1.9-10.9,2.9-19.4,2.9s-13.7-2.1-17.4-6.4c-3.7-4.2-5.4-9.3-5.1-15.1v-.7h-2.8c-3.4,5.8-9.9,11-19.4,15.7-9.5,4.6-21.5,6.9-36,6.9-44,0-66-24.9-66-74.6,0-73.5,29.1-110.3,87.3-110.3ZM431.2,402.7c0-36.4-15.6-54.6-46.6-54.6s-36.4,7.2-45.1,21.7c-8.7,14.4-13,35.1-13,62.1s14.2,53.2,42.7,53.2,22.7-2.1,31.2-6.2c8.5-4.1,15-10.2,19.4-18.2,4.4-8,7.4-16.6,9-25.8,1.6-9.2,2.4-19.9,2.4-32.1Z" style="fill: #0E2D54;"/>
        <path d="M533.8,506.8h-27.4l17.2-147.4c.8-7.8-2.5-11.7-9.9-11.7l-8.7,1.5,2.4-22.2c4.5-1.9,10.9-2.9,19.3-2.9,18.7,0,27,9,24.9,26.9v.4h.8c.3-.7.9-1.7,1.8-2.9.9-1.2,3-3.4,6.1-6.5,3.2-3.2,6.8-5.9,10.9-8.4,4.1-2.4,9.7-4.6,16.8-6.6,7.1-1.9,14.9-2.9,23.3-2.9,30.6,0,49.8,10.1,57.7,30.2,14-20.1,35.2-30.2,63.7-30.2s40.3,5.8,49.8,17.3c9.5,11.5,13.2,26.6,11.1,45.3l-9.9,86.6c-1,7.8,2.2,11.7,9.9,11.7l8.7-1.5-2.4,22.2c-4.5,1.9-10.9,2.9-19.4,2.9-18.9,0-27.3-9-25.2-26.9l10.3-89.9c1.6-12.9-.8-23.4-7.2-31.5-6.4-8.1-18.2-12.2-35.4-12.2s-40.6,9.9-50.9,29.8c0,3.9-.1,6.8-.4,8.7l-13.8,120.2h-26.6l13.2-115c3.7-29.1-10.5-43.7-42.5-43.7s-28.8,4.4-38,13.3c-9.1,8.9-14.8,18.5-16.9,29l-13.3,116.4Z" style="fill: #0E2D54;"/>
        <path d="M957.3,453.3l24.1,4c-1.6,13.8-8.9,25.8-21.9,36-13,10.2-32.3,15.3-57.9,15.3s-41.7-5.9-53.2-17.7c-11.5-11.8-17.2-30.3-17.2-55.5,0-37.4,7.3-65.3,21.9-83.7,14.6-18.4,37.7-27.7,69.4-27.7s40.7,4.7,51.8,14c11.1,9.3,16.6,21.5,16.6,36.6s-7,34.5-20.9,45.3c-14,10.8-33.9,16.2-59.7,16.2h-50.6c0,17.7,3.8,30.3,11.5,37.7,7.6,7.4,18.7,11.1,33.2,11.1s30.6-3.1,38.9-9.5c8.3-6.3,13-13.7,14-22.2ZM919.8,348.1c-16.9,0-30.1,5.1-39.7,15.3-9.6,10.2-15.9,26.7-18.8,49.5h51c16.6,0,29.3-3.2,38.1-9.6,8.8-6.4,13.2-15.2,13.2-26.4s-3.4-15.1-10.3-20.6c-6.9-5.5-18.1-8.2-33.6-8.2Z" style="fill: #0E2D54;"/>
      </g>
      <g>
        <path d="M191.6,0v6.5h-16.7v50h-8V6.5h-16.7V0h41.4Z" style="fill: #0E2D54;"/>
        <path d="M242.6,0h8v56.4h-8v-25.2h-27.5v25.2h-8V0h8v24.7h27.5V0Z" style="fill: #0E2D54;"/>
        <path d="M307.1,50v6.5h-36.7V0h36.7v6.5h-28.7v18h23.8v6.5h-23.8v18.9h28.7Z" style="fill: #0E2D54;"/>
      </g>
      <g>
        <path d="M1229.6,321.1c-4.8,1.5-9.7,2.3-14.8,2.3-10.3,0-20.1-3.2-28.4-9.2l-18.1-13.1-6.4,18.1c-15.9,45-36.6,86.1-61.5,122.4-62.3,91.4-135.6,159.8-217.7,203.4-88.4,46.9-190.7,71.7-295.7,71.7-108.3,0-214.6-26.1-307.6-75.6l-12.1-6.4-18,30.4,11.2,7.5c94,63.2,204.8,102.4,320.5,113.4,19.1,1.9,39,2.8,58.9,2.8,189.4,0,443.5-90.8,553.9-290.2,28-49.6,46.3-104.1,54.3-161.9l3.2-22.6-21.8,7Z" style="fill: #0E2D54;"/>
        <path d="M1162.3,216.2c1.9-16.7,10.2-30.4,25-40.9,14.8-10.5,31.3-14.8,49.4-12.7,15.3,1.7,27.6,8.2,37,19.4,9.4,11.2,13.3,23.9,11.7,37.9-1.8,16.1-10.1,29.2-24.8,39.4-14.8,10.2-31.2,14.3-49.4,12.2-16-1.8-28.5-7.9-37.6-18.5-9.1-10.5-12.9-22.8-11.3-36.8Z" style="fill: #0E2D54;"/>
      </g>
      <path d="M80.9,56c.8-7.5,4.5-13.5,11.1-18.2,6.6-4.7,13.9-6.6,22-5.7s12.3,3.6,16.5,8.6c4.2,5,5.9,10.6,5.2,16.9-.8,7.2-4.5,13-11.1,17.6-6.6,4.5-13.9,6.4-22,5.5-7.1-.8-12.7-3.5-16.8-8.2-4.1-4.7-5.7-10.2-5-16.4Z" style="fill: #0E2D54;"/>
    </g>
  </g>
</svg>
