<?xml version="1.0" encoding="UTF-8"?>
<svg id="Livello_2" data-name="Livello 2" xmlns="http://www.w3.org/2000/svg" viewBox="0 0 224.89 198.43">
  <defs>
    <style>
      .cls-1 {
        fill: #5195ff;
      }
    </style>
  </defs>
  <g id="Livello_1-2" data-name="Livello 1">
    <path class="cls-1" d="M145.98,41.02h-45.46c-4.61,0-8.53-2.92-10.02-7.02l-8.97-26.62c-1.38-4.29-5.4-7.39-10.14-7.39-.35,0-.69.02-1.03.05C30.8,4.31,0,37.81,0,78.5c0,43.58,35.33,78.91,78.91,78.91h45.49c4.69,0,8.67,3.03,10.1,7.23l8.99,26.69c1.47,4.13,5.41,7.09,10.05,7.09.41,0,.81-.02,1.21-.07,39.46-4.36,70.15-37.81,70.15-78.43,0-43.58-35.33-78.91-78.91-78.91ZM145.98,157.41h-6.27c-4.6,0-8.52-2.91-10.01-6.99l-4.29-12.73c-4.17-12.61-16.06-21.71-30.07-21.71h-16.44c-20.7,0-37.48-16.78-37.48-37.48s16.78-37.48,37.48-37.48h6.3c4.73,0,8.73,3.08,10.13,7.34l4.23,12.55c4.32,12.54,16.22,21.54,30.22,21.54h0s16.2,0,16.2,0c20.7,0,37.48,16.78,37.48,37.48s-16.78,37.48-37.48,37.48Z"/>
  </g>
</svg>