<?xml version="1.0" encoding="UTF-8"?>
<svg id="Livello_2" data-name="Livello 2" xmlns="http://www.w3.org/2000/svg" viewBox="0 0 252.69 226.77">
  <defs>
    <style>
      .cls-1 {
        fill: #f3f6f9;
      }
    </style>
  </defs>
  <g id="Livello_1-2" data-name="Livello 1">
    <g>
      <g>
        <path class="cls-1" d="M42.12,224.04h1.33c.03.3.15.56.35.8.2.24.48.42.82.55.34.13.73.2,1.17.2.39,0,.72-.05.97-.14s.45-.23.57-.4c.12-.17.19-.37.19-.61s-.07-.41-.22-.55c-.15-.13-.37-.24-.68-.34-.3-.09-.69-.18-1.16-.27-.39-.07-.77-.17-1.14-.29s-.7-.27-.99-.46c-.29-.18-.52-.41-.69-.68-.17-.27-.25-.59-.25-.95,0-.42.12-.79.35-1.13.24-.34.59-.6,1.05-.79.46-.19,1.03-.29,1.69-.29,1.02,0,1.79.23,2.33.7.54.47.8,1.1.78,1.9h-1.31c-.02-.5-.21-.87-.55-1.09-.34-.22-.78-.34-1.31-.34-.47,0-.87.08-1.19.25-.32.17-.48.44-.48.82,0,.16.04.3.11.41.08.12.2.22.38.31.18.09.42.18.73.26s.69.17,1.13.27c.38.06.74.15,1.08.26.34.11.63.25.88.42.25.17.45.38.59.65s.22.59.22.97c0,.44-.11.83-.34,1.17-.22.34-.57.61-1.03.8-.46.2-1.05.29-1.78.29-.55,0-1.03-.07-1.45-.2-.41-.13-.76-.3-1.05-.52-.29-.21-.52-.44-.69-.69-.17-.25-.29-.49-.36-.73-.07-.24-.09-.44-.07-.61Z"/>
        <path class="cls-1" d="M49.58,218.84h7.46v1.18h-7.46v-1.18ZM52.64,219.87h1.36v6.74h-1.36v-6.74Z"/>
        <path class="cls-1" d="M56.9,226.62l3.4-7.78h1.46l3.42,7.78h-1.48l-2.98-7.02h.6l-2.96,7.02h-1.46ZM58.7,224.79v-1.16h4.63v1.16h-4.63Z"/>
        <path class="cls-1" d="M66.34,226.62v-7.78h4.6c.58,0,1.08.08,1.5.25.42.16.75.42.98.76.23.34.35.77.35,1.3,0,.35-.06.65-.18.91-.12.25-.29.46-.5.62-.22.16-.47.28-.75.37-.28.09-.59.14-.91.17l-.12-.08c.51,0,.94.05,1.27.14.34.08.59.24.77.47.18.23.26.56.26,1v1.88h-1.36v-1.81c0-.3-.05-.54-.16-.71-.11-.17-.29-.29-.55-.36-.26-.07-.63-.1-1.11-.1h-2.72v2.99h-1.37ZM67.71,222.51h3.23c.48,0,.84-.12,1.09-.36s.37-.56.37-.95-.12-.67-.37-.87c-.25-.2-.61-.31-1.09-.31h-3.23v2.48Z"/>
        <path class="cls-1" d="M74.71,218.84h7.46v1.18h-7.46v-1.18ZM77.77,219.87h1.36v6.74h-1.36v-6.74Z"/>
        <path class="cls-1" d="M89.85,223.34v-4.5h1.36v4.61c0,.49-.07.92-.2,1.28-.13.37-.32.68-.56.94-.24.26-.52.47-.85.63s-.69.28-1.07.35c-.39.07-.8.11-1.23.11s-.87-.04-1.27-.11c-.4-.07-.76-.19-1.09-.35-.33-.16-.61-.37-.85-.63-.24-.26-.42-.57-.55-.94-.13-.37-.2-.8-.2-1.28v-4.61h1.37v4.5c0,.61.11,1.07.34,1.39.23.32.54.53.93.65.39.12.83.18,1.32.18s.9-.06,1.28-.18.69-.34.92-.65c.23-.32.35-.78.35-1.39Z"/>
        <path class="cls-1" d="M94.23,224.01v-1.14h3.14c.44,0,.79-.13,1.06-.38.27-.26.4-.6.4-1.03s-.13-.8-.4-1.05-.62-.38-1.06-.38h-2.95v6.59h-1.37v-7.78h4.22c.41,0,.79.05,1.14.16.35.11.66.27.93.49.27.22.48.49.62.81.15.32.22.71.22,1.16s-.07.82-.22,1.15c-.15.32-.36.59-.62.8-.27.21-.58.36-.93.46-.35.1-.73.15-1.14.15h-3.05Z"/>
        <path class="cls-1" d="M112.64,223.89c-.08.6-.29,1.11-.64,1.54s-.8.76-1.37.98c-.57.23-1.24.34-2,.34-.66,0-1.26-.09-1.81-.26-.55-.18-1.02-.43-1.43-.77-.4-.34-.72-.76-.94-1.26-.22-.5-.33-1.07-.33-1.72s.11-1.23.33-1.73c.22-.5.53-.92.94-1.27s.88-.61,1.43-.79c.55-.18,1.15-.26,1.81-.26.77,0,1.44.12,2.01.35s1.03.56,1.37,1c.34.43.55.95.62,1.56h-1.32c-.11-.36-.29-.67-.53-.92-.24-.25-.54-.45-.91-.58-.36-.14-.78-.2-1.25-.2-.59,0-1.12.11-1.6.33-.47.22-.84.54-1.11.96-.27.42-.4.94-.4,1.55s.13,1.12.4,1.54c.27.42.64.74,1.11.95.47.22,1,.32,1.6.32.47,0,.89-.07,1.25-.2.36-.13.66-.32.9-.58s.42-.55.53-.89h1.33Z"/>
        <path class="cls-1" d="M113.15,226.62l3.4-7.78h1.46l3.42,7.78h-1.48l-2.98-7.02h.6l-2.96,7.02h-1.46ZM114.95,224.79v-1.16h4.63v1.16h-4.63Z"/>
        <path class="cls-1" d="M123.74,224.01v-1.14h3.14c.44,0,.79-.13,1.06-.38.27-.26.4-.6.4-1.03s-.13-.8-.4-1.05-.62-.38-1.06-.38h-2.95v6.59h-1.37v-7.78h4.22c.41,0,.79.05,1.14.16.35.11.66.27.93.49.27.22.48.49.62.81.15.32.22.71.22,1.16s-.07.82-.22,1.15c-.15.32-.36.59-.62.8-.27.21-.58.36-.93.46-.35.1-.73.15-1.14.15h-3.05Z"/>
        <path class="cls-1" d="M131.43,218.84h1.37v7.78h-1.37v-7.78Z"/>
        <path class="cls-1" d="M134.18,218.84h7.46v1.18h-7.46v-1.18ZM137.24,219.87h1.36v6.74h-1.36v-6.74Z"/>
        <path class="cls-1" d="M141.5,226.62l3.4-7.78h1.46l3.42,7.78h-1.48l-2.98-7.02h.6l-2.96,7.02h-1.46ZM143.3,224.79v-1.16h4.63v1.16h-4.63Z"/>
        <path class="cls-1" d="M152.31,218.84v6.6h4.85v1.18h-6.22v-7.78h1.37Z"/>
        <path class="cls-1" d="M162.8,223.3v2.14h5.46v1.18h-6.83v-7.78h6.82v1.18h-5.45v2.16h4.46v1.13h-4.46Z"/>
        <path class="cls-1" d="M177.1,225.2l-.41.16v-6.52h1.36v7.78h-1.36l-5.83-6.32.42-.16v6.48h-1.37v-7.78h1.37l5.82,6.36Z"/>
        <path class="cls-1" d="M183.97,226.76c-.66,0-1.26-.09-1.8-.26-.54-.18-.99-.43-1.37-.77-.38-.34-.67-.76-.88-1.25-.2-.5-.31-1.06-.31-1.68s.11-1.2.32-1.7c.22-.5.52-.93.92-1.29.4-.36.88-.63,1.43-.82.55-.19,1.16-.28,1.82-.28.78,0,1.45.12,2.02.36.57.24,1.02.57,1.36,1,.34.43.53.93.58,1.52h-1.26c-.1-.34-.27-.64-.51-.89-.24-.25-.54-.44-.9-.58-.36-.14-.79-.21-1.28-.21-.64,0-1.19.12-1.66.37-.47.24-.83.58-1.07,1.02-.25.44-.37.94-.37,1.51s.11,1.06.33,1.47c.22.41.55.73,1,.96.45.23,1,.34,1.67.34.51,0,.96-.08,1.35-.23.39-.16.71-.37.97-.65.26-.28.44-.6.54-.97l.61-.14c-.11,1.03-.48,1.82-1.1,2.38-.62.55-1.42.83-2.41.83ZM187.15,226.62c0-.26.01-.55.04-.87.02-.32.05-.66.09-1,.04-.34.07-.65.1-.92h-3.22v-.98h4.2v3.77h-1.21Z"/>
        <path class="cls-1" d="M190.27,218.84h1.37v7.78h-1.37v-7.78Z"/>
        <path class="cls-1" d="M200.92,225.2l-.41.16v-6.52h1.36v7.78h-1.36l-5.83-6.32.42-.16v6.48h-1.37v-7.78h1.37l5.82,6.36Z"/>
        <path class="cls-1" d="M205.11,223.3v2.14h5.46v1.18h-6.83v-7.78h6.82v1.18h-5.45v2.16h4.46v1.13h-4.46Z"/>
      </g>
      <g>
        <path class="cls-1" d="M0,169.02h8.07v40.37H0v-40.37Z"/>
        <path class="cls-1" d="M58.37,209.39v-30.74l-15.05,31.32h-2.88l-15.05-31.32v30.74h-8.07l.06-40.37h11.82l12.69,26.36,12.69-26.36h11.82l.06,40.37h-8.07Z"/>
        <path class="cls-1" d="M116.74,209.39v-30.74l-15.05,31.32h-2.88l-15.05-31.32v30.74h-8.07l.06-40.37h11.82l12.69,26.36,12.69-26.36h11.82l.06,40.37h-8.07Z"/>
        <path class="cls-1" d="M142.12,176.4v7.79h21.17v7.27h-21.17v10.56h22.55v7.38h-30.63v-40.37h30.63v7.38h-22.55Z"/>
        <path class="cls-1" d="M209.37,169.02v40.95h-2.88l-25.38-30.11v29.53h-8.07v-40.37h9.46l18.8,22.72v-22.72h8.07Z"/>
        <path class="cls-1" d="M252.69,176.52h-14.88v32.88h-8.07v-32.88h-14.88v-7.5h37.84v7.5Z"/>
      </g>
      <path class="cls-1" d="M151.61,30.91h-34.26c-3.47,0-6.43-2.2-7.55-5.29l-6.76-20.05c-1.04-3.23-4.07-5.57-7.64-5.57-.26,0-.52.01-.77.04-29.81,3.21-53.02,28.45-53.02,59.11,0,32.84,26.62,59.45,59.45,59.45h34.28c3.53,0,6.53,2.28,7.61,5.45l6.77,20.11c1.1,3.11,4.08,5.34,7.57,5.34.31,0,.61-.02.91-.05,29.73-3.28,52.85-28.49,52.85-59.09,0-32.84-26.62-59.45-59.45-59.45ZM151.61,118.6h-4.72c-3.46,0-6.42-2.19-7.54-5.27l-3.23-9.59c-3.14-9.5-12.1-16.36-22.66-16.36h-12.39c-15.6,0-28.24-12.64-28.24-28.24s12.64-28.24,28.24-28.24h4.74c3.56,0,6.58,2.32,7.63,5.53l3.18,9.45c3.25,9.45,12.22,16.23,22.77,16.23h0s12.21,0,12.21,0c15.6,0,28.24,12.64,28.24,28.24s-12.64,28.24-28.24,28.24Z"/>
    </g>
  </g>
</svg>